<svg width="27" height="28" viewBox="0 0 27 28" fill="none" xmlns="http://www.w3.org/2000/svg">
<g id="css3">
<path id="Vector" d="M25.434 0L23.274 25.2L13.5 28L3.78 25.2L1.62 0H25.434Z" fill="#525252"/>
<path id="Vector_2" d="M21.411 23.604L23.274 2.07202H13.554V25.872L21.411 23.604Z" fill="#626262"/>
<path id="Vector_3" d="M6.58801 11.396L6.85801 14.476H13.527V11.396H6.58801Z" fill="#EBEBEB"/>
<path id="Vector_4" d="M13.527 5.15198H6.04797L6.31797 8.23198H13.527V5.15198Z" fill="#EBEBEB"/>
<path id="Vector_5" d="M13.527 22.652V19.432L10.206 18.508L9.99004 16.044H8.37004H6.99304L7.39804 20.888L13.527 22.652Z" fill="#EBEBEB"/>
<path id="Vector_6" d="M17.172 14.504L16.821 18.508L13.5 19.432V22.652L19.602 20.888L19.656 20.356L20.358 12.208L20.439 11.368L20.979 5.12402H13.5V8.20402H17.712L17.442 11.368H13.5V14.448H17.172V14.504Z" fill="white"/>
</g>
</svg>
