<svg width="44" height="44" viewBox="0 0 44 44" fill="none" xmlns="http://www.w3.org/2000/svg">
<path fill-rule="evenodd" clip-rule="evenodd" d="M9.58963 25.0814C9.58755 25.2314 9.70936 25.3557 9.85941 25.3557C9.70937 25.3557 9.58743 25.4773 9.59064 25.6273C9.62434 27.1997 9.95034 28.7529 10.5528 30.2074C11.1899 31.7456 12.1238 33.1432 13.3011 34.3205C14.4784 35.4978 15.876 36.4317 17.4142 37.0688C18.9096 37.6882 20.5094 38.0154 22.1271 38.0331C18.19 37.9591 15.0212 34.7445 15.0212 30.7897C15.0212 30.432 15.0472 30.0803 15.0973 29.7364C15.0994 29.716 15.102 29.6954 15.1051 29.6748C15.3364 28.1201 16.0245 26.6549 16.8881 25.3557C18.292 23.2437 20.1599 21.5706 21.2844 20.6657C21.8647 20.1987 22.6674 20.1987 23.2477 20.6657C25.0638 22.1273 28.8193 25.5928 29.4268 29.6748C29.4299 29.6954 29.4325 29.716 29.4346 29.7365C29.4847 30.0803 29.5106 30.432 29.5106 30.7897C29.5106 34.7445 26.3418 37.9591 22.4048 38.0331C24.0224 38.0154 25.6222 37.6882 27.1177 37.0688C28.6558 36.4317 30.0535 35.4978 31.2308 34.3205C32.408 33.1432 33.3419 31.7456 33.979 30.2074C34.5946 28.7214 34.9215 27.1322 34.943 25.5249C34.9437 25.5041 34.9441 25.4832 34.9441 25.4622L34.944 25.4046L34.9441 25.3558L34.944 25.3557L34.9438 25.3555C34.896 17.6749 29.6996 13.4835 28.7523 12.7829C28.6635 12.7172 28.5455 12.718 28.4567 12.7837C28.0768 13.0647 27.0186 13.9033 25.8823 15.2995C25.7527 15.4588 25.498 15.4283 25.4103 15.2427C23.2753 10.7246 20.3177 7.98232 19.619 7.37333C19.5289 7.29476 19.4054 7.28574 19.3085 7.35576C18.0516 8.26383 9.73376 14.6633 9.58963 25.0814Z" fill="#222222"/>
<path fill-rule="evenodd" clip-rule="evenodd" d="M15.1051 29.6749C15.7126 25.5929 19.4682 22.1273 21.2844 20.6658C21.8647 20.1988 22.6674 20.1988 23.2477 20.6658C25.0638 22.1274 28.8193 25.5929 29.4268 29.6749C29.4299 29.6955 29.4325 29.7161 29.4346 29.7366C29.4847 30.0804 29.5106 30.4321 29.5106 30.7898C29.5106 34.791 26.267 38.0345 22.2659 38.0345C18.2648 38.0345 15.0212 34.791 15.0212 30.7898C15.0212 30.4321 15.0472 30.0804 15.0973 29.7365C15.0994 29.7161 15.102 29.6955 15.1051 29.6749Z" fill="#7E869E" fill-opacity="0.25"/>
</svg>
