<svg width="27" height="27" viewBox="0 0 27 27" fill="none" xmlns="http://www.w3.org/2000/svg">
<g id="js" clip-path="url(#clip0_13_158)">
<path id="Vector" d="M27 0H0V27H27V0Z" fill="#D1D1D1"/>
<path id="Vector_2" d="M18.144 21.087C18.684 21.978 19.386 22.626 20.655 22.626C21.708 22.626 22.383 22.113 22.383 21.384C22.383 20.52 21.681 20.196 20.547 19.71L19.926 19.44C18.09 18.657 16.875 17.685 16.875 15.606C16.875 13.716 18.333 12.258 20.601 12.258C22.221 12.258 23.382 12.825 24.219 14.283L22.248 15.552C21.816 14.769 21.357 14.472 20.628 14.472C19.872 14.472 19.413 14.931 19.413 15.552C19.413 16.308 19.872 16.632 20.979 17.091L21.6 17.361C23.76 18.279 24.975 19.224 24.975 21.357C24.975 23.652 23.193 24.894 20.763 24.894C18.414 24.894 16.875 23.76 16.146 22.302L18.144 21.087ZM9.17995 21.303C9.58495 22.005 9.93595 22.599 10.8 22.599C11.637 22.599 12.15 22.275 12.15 21.006V12.366H14.688V21.06C14.688 23.679 13.149 24.894 10.908 24.894C8.88295 24.894 7.69495 23.841 7.10095 22.572L9.17995 21.303Z" fill="black"/>
</g>
<defs>
<clipPath id="clip0_13_158">
<rect width="27" height="27" fill="white"/>
</clipPath>
</defs>
</svg>
