<svg width="44" height="44" viewBox="0 0 44 44" fill="none" xmlns="http://www.w3.org/2000/svg">
<path fill-rule="evenodd" clip-rule="evenodd" d="M16.3182 21.9025C15.8232 21.5489 15.5756 21.3721 15.3299 21.3503C15.1145 21.3312 14.8993 21.3899 14.7233 21.5157C14.5226 21.6592 14.3991 21.9371 14.152 22.4931L8.64866 34.8756C8.20756 35.8681 7.98701 36.3643 8.08093 36.6836C8.16244 36.9607 8.37122 37.1822 8.64296 37.2801C8.95607 37.3928 9.46453 37.2021 10.4814 36.8208L10.4815 36.8208L21.2253 32.7918L21.2253 32.7918L21.2254 32.7918C21.4136 32.7212 21.5077 32.6859 21.6045 32.6719C21.6904 32.6595 21.7777 32.6595 21.8636 32.6719C21.9604 32.6859 22.0545 32.7212 22.2428 32.7918L22.2428 32.7918L32.9866 36.8208L32.9866 36.8208C34.0036 37.2021 34.512 37.3928 34.8251 37.2801C35.0969 37.1822 35.3057 36.9607 35.3872 36.6836C35.4811 36.3643 35.2605 35.8681 34.8194 34.8756L34.8194 34.8756L29.3161 22.4931C29.069 21.9371 28.9455 21.6592 28.7448 21.5157C28.5688 21.3899 28.3536 21.3312 28.1381 21.3503C27.8925 21.3721 27.6449 21.5489 27.1499 21.9025L22.7868 25.019C22.157 25.4688 21.3111 25.4688 20.6813 25.019L16.3182 21.9025ZM16.4112 17.4098C16.3901 17.4574 16.4053 17.5132 16.4477 17.5435L20.8919 20.7179C21.1949 20.9343 21.3464 21.0426 21.5117 21.0844C21.6576 21.1214 21.8105 21.1214 21.9564 21.0844C22.1217 21.0426 22.2732 20.9343 22.5762 20.7179L27.0204 17.5435C27.0628 17.5132 27.078 17.4574 27.0569 17.4098L23.0581 8.41262C22.6388 7.4691 22.4291 6.99734 22.1369 6.85221C21.8831 6.72614 21.585 6.72614 21.3312 6.85221C21.039 6.99734 20.8293 7.4691 20.41 8.41261L20.41 8.41262L16.4112 17.4098Z" fill="#222222"/>
</svg>
