<svg width="45" height="44" viewBox="0 0 45 44" fill="none" xmlns="http://www.w3.org/2000/svg">
<path fill-rule="evenodd" clip-rule="evenodd" d="M11.633 12.6782C11.633 9.26301 11.633 7.55542 12.694 6.49446C13.755 5.4335 15.4625 5.4335 18.8777 5.4335H26.1224C29.5376 5.4335 31.2452 5.4335 32.3061 6.49446C33.3671 7.55542 33.3671 9.26301 33.3671 12.6782V18.1117H27.6228C27.1424 18.1117 26.6818 17.9209 26.3421 17.5812L23.0305 14.2696C22.0115 13.2506 20.6295 12.6782 19.1884 12.6782H11.633V12.6782ZM11.4763 16.3005C9.89234 16.3008 9.08042 16.3092 8.43568 16.5763C7.5481 16.9439 6.84293 17.6491 6.47528 18.5367C6.19955 19.2023 6.19955 20.0462 6.19955 21.734H6.19952V32.2388C6.19952 34.2675 6.19952 35.2819 6.59434 36.0567C6.94162 36.7383 7.49577 37.2925 8.17736 37.6398C8.95222 38.0346 9.96657 38.0346 11.9953 38.0346H33.0048C35.0335 38.0346 36.0479 38.0346 36.8228 37.6398C37.5043 37.2925 38.0585 36.7383 38.4058 36.0567C38.8006 35.2819 38.8006 34.2675 38.8006 32.2388V27.5298C38.8006 25.5011 38.8006 24.4867 38.4058 23.7119C38.0585 23.0303 37.5043 22.4761 36.8228 22.1288C36.0954 21.7583 35.1571 21.7355 33.3671 21.7341V21.734H27.6228C26.1817 21.734 24.7997 21.1616 23.7807 20.1426L20.4691 16.831C20.1295 16.4914 19.6688 16.3005 19.1884 16.3005H11.4763Z" fill="#222222"/>
</svg>
