<svg width="27" height="27" viewBox="0 0 27 27" fill="none" xmlns="http://www.w3.org/2000/svg">
<g id="reactjs" clip-path="url(#clip0_13_161)">
<path id="Vector" d="M13.4466 15.876C14.7565 15.876 15.7991 14.823 15.7991 13.5C15.7991 12.177 14.7565 11.124 13.4466 11.124C12.1367 11.124 11.0941 12.177 11.0941 13.5C11.0941 14.823 12.1367 15.876 13.4466 15.876Z" fill="#B9B9B9"/>
<path id="Vector_2" d="M13.4466 18.387C20.4238 18.387 26.0911 16.2 26.0911 13.5C26.0911 10.8 20.4238 8.61298 13.4466 8.61298C6.46933 8.61298 0.802002 10.8 0.802002 13.5C0.802002 16.2 6.46933 18.387 13.4466 18.387Z" stroke="#B9B9B9" stroke-width="2"/>
<path id="Vector_3" d="M9.27621 15.93C12.7515 22.059 17.4564 25.92 19.7821 24.57C22.0812 23.22 21.1455 17.172 17.6435 11.07C14.1416 4.94097 9.4366 1.07997 7.13759 2.42997C4.81185 3.77997 5.77423 9.82797 9.27621 15.93Z" stroke="#B9B9B9" stroke-width="2"/>
<path id="Vector_4" d="M9.27627 11.07C5.77429 17.172 4.83864 23.22 7.13765 24.57C9.43666 25.92 14.1416 22.059 17.6169 15.93C21.1188 9.82797 22.0812 3.77997 19.7822 2.42997C17.4565 1.07997 12.7515 4.94097 9.27627 11.07Z" stroke="#B9B9B9" stroke-width="2"/>
</g>
<defs>
<clipPath id="clip0_13_161">
<rect width="27" height="27" fill="white"/>
</clipPath>
</defs>
</svg>
