<svg width="44" height="44" viewBox="0 0 44 44" fill="none" xmlns="http://www.w3.org/2000/svg">
<path d="M16.4494 10.867C16.4494 11.5806 16.59 12.2871 16.863 12.9463C17.1361 13.6056 17.5363 14.2045 18.0409 14.7091C18.5454 15.2136 19.1444 15.6139 19.8036 15.8869C20.4629 16.16 21.1694 16.3005 21.883 16.3005C22.5965 16.3005 23.303 16.16 23.9623 15.8869C24.6215 15.6139 25.2205 15.2136 25.725 14.7091C26.2296 14.2045 26.6298 13.6056 26.9029 12.9463C27.1759 12.2871 27.3165 11.5806 27.3165 10.867C27.3165 10.1535 27.1759 9.44692 26.9029 8.7877C26.6298 8.12847 26.2296 7.52949 25.725 7.02494C25.2205 6.52039 24.6215 6.12016 23.9623 5.8471C23.303 5.57404 22.5965 5.4335 21.883 5.4335C21.1694 5.4335 20.4629 5.57404 19.8036 5.8471C19.1444 6.12016 18.5454 6.52039 18.0409 7.02494C17.5363 7.52949 17.1361 8.12848 16.863 8.7877C16.59 9.44693 16.4494 10.1535 16.4494 10.867L16.4494 10.867Z" stroke="#33363F" stroke-width="3.62234"/>
<path d="M8.18655 25.178C7.56861 25.5348 7.02699 26.0097 6.59262 26.5758C6.15824 27.1419 5.83962 27.788 5.65494 28.4772C5.47026 29.1665 5.42315 29.8853 5.51628 30.5928C5.60942 31.3002 5.84098 31.9824 6.19775 32.6003C6.55452 33.2182 7.02951 33.7599 7.5956 34.1942C8.16169 34.6286 8.80779 34.9472 9.49701 35.1319C10.1862 35.3166 10.9051 35.3637 11.6125 35.2706C12.32 35.1774 13.0021 34.9459 13.6201 34.5891C14.238 34.2323 14.7796 33.7573 15.214 33.1913C15.6484 32.6252 15.967 31.9791 16.1517 31.2898C16.3364 30.6006 16.3835 29.8818 16.2903 29.1743C16.1972 28.4669 15.9656 27.7847 15.6089 27.1668C15.2521 26.5488 14.7771 26.0072 14.211 25.5728C13.6449 25.1385 12.9988 24.8198 12.3096 24.6352C11.6204 24.4505 10.9015 24.4034 10.1941 24.4965C9.48666 24.5897 8.80449 24.8212 8.18655 25.178L8.18655 25.178Z" stroke="#33363F" stroke-width="3.62234"/>
<path d="M35.5794 25.178C36.1973 25.5348 36.7389 26.0097 37.1733 26.5758C37.6077 27.1419 37.9263 27.788 38.111 28.4772C38.2957 29.1665 38.3428 29.8853 38.2496 30.5928C38.1565 31.3002 37.9249 31.9824 37.5682 32.6003C37.2114 33.2182 36.7364 33.7599 36.1703 34.1942C35.6042 34.6286 34.9581 34.9472 34.2689 35.1319C33.5797 35.3166 32.8608 35.3637 32.1534 35.2706C31.446 35.1774 30.7638 34.9459 30.1459 34.5891C29.5279 34.2323 28.9863 33.7573 28.5519 33.1913C28.1176 32.6252 27.7989 31.9791 27.6143 31.2898C27.4296 30.6006 27.3825 29.8818 27.4756 29.1743C27.5687 28.4669 27.8003 27.7847 28.1571 27.1668C28.5138 26.5488 28.9888 26.0072 29.5549 25.5728C30.121 25.1385 30.7671 24.8199 31.4563 24.6352C32.1456 24.4505 32.8644 24.4034 33.5718 24.4965C34.2793 24.5897 34.9614 24.8212 35.5794 25.178L35.5794 25.178Z" stroke="#33363F" stroke-width="3.62234"/>
<path fill-rule="evenodd" clip-rule="evenodd" d="M16.5756 12.0319C16.4919 11.6504 16.4494 11.26 16.4494 10.8676C16.4494 10.154 16.5899 9.44748 16.863 8.78825C16.9928 8.47469 17.1515 8.17474 17.3365 7.89211C16.7633 8.05859 16.1986 8.25674 15.645 8.48603C13.6674 9.30521 11.8704 10.5059 10.3568 12.0195C8.84312 13.5332 7.64244 15.3302 6.82326 17.3078C6.00408 19.2855 5.58246 21.4052 5.58246 23.5458C5.58246 24.8593 5.74121 26.1649 6.05315 27.4346C6.20544 27.1331 6.38588 26.8457 6.59252 26.5764C7.0269 26.0103 7.56852 25.5353 8.18646 25.1785C8.52636 24.9823 8.88569 24.8239 9.25797 24.7057C9.2226 24.3207 9.2048 23.9337 9.2048 23.5458C9.2048 21.8808 9.53273 20.2322 10.1699 18.694C10.807 17.1558 11.7409 15.7582 12.9181 14.5809C13.9781 13.521 15.2166 12.6584 16.5756 12.0319ZM27.1902 12.0318C28.5492 12.6583 29.7878 13.5209 30.8478 14.5809C32.0251 15.7582 32.959 17.1558 33.5961 18.694C34.2332 20.2322 34.5612 21.8808 34.5612 23.5458C34.5612 23.9337 34.5434 24.3208 34.508 24.7057C34.8802 24.824 35.2394 24.9823 35.5793 25.1785C36.1972 25.5353 36.7388 26.0103 37.1732 26.5764C37.3799 26.8458 37.5604 27.1333 37.7128 27.435C38.0247 26.1651 38.1835 24.8594 38.1835 23.5458C38.1835 21.4051 37.7619 19.2855 36.9427 17.3078C36.1235 15.3301 34.9228 13.5332 33.4092 12.0195C31.8956 10.5059 30.0986 9.3052 28.1209 8.48603C27.5673 8.25669 27.0025 8.05852 26.4292 7.89203C26.6142 8.17468 26.7729 8.47465 26.9028 8.78825C27.1758 9.44747 27.3164 10.154 27.3164 10.8676C27.3164 11.26 27.2739 11.6503 27.1902 12.0318ZM33.1671 35.3091C32.8296 35.328 32.4901 35.3155 32.1533 35.2711C31.4459 35.178 30.7637 34.9464 30.1458 34.5897C29.8061 34.3935 29.4895 34.1617 29.2011 33.8987C28.4338 34.441 27.6069 34.8976 26.7347 35.2589C25.1965 35.896 23.5479 36.2239 21.883 36.2239C20.2181 36.2239 18.5694 35.896 17.0313 35.2589C16.1591 34.8976 15.3321 34.4409 14.5648 33.8986C14.2763 34.1616 13.9597 34.3935 13.62 34.5897C13.002 34.9464 12.3199 35.178 11.6124 35.2711C11.2757 35.3155 10.9363 35.328 10.5989 35.3091C12.0607 36.7113 13.7718 37.8296 15.6451 38.6055C17.6227 39.4247 19.7424 39.8463 21.883 39.8463C24.0236 39.8463 26.1433 39.4247 28.1209 38.6055C29.9942 37.8295 31.7053 36.7113 33.1671 35.3091Z" fill="#33363F"/>
</svg>
