<svg width="27" height="27" viewBox="0 0 27 27" fill="none" xmlns="http://www.w3.org/2000/svg">
<g id="tailwindcss">
<path id="Vector" d="M13.5 5.40002C9.909 5.40002 7.641 7.20902 6.75 10.8C8.1 8.99102 9.666 8.31602 11.475 8.77502C12.501 9.04502 13.23 9.77402 14.04 10.611C15.363 11.961 16.902 13.5 20.25 13.5C23.841 13.5 26.109 11.691 27 8.10002C25.65 9.90902 24.084 10.584 22.275 10.125C21.249 9.85502 20.52 9.12602 19.71 8.28902C18.387 6.96602 16.848 5.40002 13.5 5.40002ZM6.75 13.5C3.159 13.5 0.891 15.309 0 18.9C1.35 17.091 2.916 16.416 4.725 16.875C5.751 17.145 6.48 17.874 7.29 18.711C8.613 20.061 10.152 21.6 13.5 21.6C17.091 21.6 19.359 19.791 20.25 16.2C18.9 18.009 17.334 18.684 15.525 18.225C14.499 17.982 13.77 17.226 12.96 16.389C11.637 15.066 10.098 13.5 6.75 13.5Z" fill="#848484"/>
</g>
</svg>
