<svg width="29" height="32" viewBox="0 0 29 32" fill="none" xmlns="http://www.w3.org/2000/svg">
<g id="c++">
<g id="c++_2">
<path id="Vector" d="M28.3937 9.38265C28.3935 8.84604 28.2787 8.37186 28.0466 7.9649C27.8187 7.56472 27.4772 7.22931 27.0193 6.96412C23.2391 4.78445 19.4553 2.61144 15.6763 0.429554C14.6575 -0.158609 13.6697 -0.137167 12.6585 0.45944C11.1539 1.34679 3.62075 5.66269 1.37597 6.96289C0.45151 7.49806 0.0016665 8.31709 0.0014443 9.38165C0 13.7651 0.0014443 18.1484 0 22.532C0.0002222 23.0568 0.1101 23.5218 0.331967 23.9226C0.560055 24.3349 0.906243 24.6795 1.37475 24.9507C3.61964 26.2509 11.1538 30.5665 12.6581 31.4541C13.6697 32.051 14.6575 32.0724 15.6767 31.484C19.4557 29.302 23.2398 27.1291 27.0205 24.9494C27.489 24.6783 27.8352 24.3335 28.0633 23.9215C28.2848 23.5207 28.3949 23.0557 28.3952 22.5308C28.3952 22.5308 28.3952 13.7662 28.3937 9.38265Z" fill="#5C8DBC"/>
<path id="Vector_2" d="M14.241 15.9141L0.331909 23.9227C0.559998 24.335 0.906186 24.6796 1.37469 24.9508C3.61958 26.251 11.1537 30.5666 12.658 31.4541C13.6697 32.0511 14.6575 32.0724 15.6766 31.484C19.4557 29.302 23.2398 27.1291 27.0205 24.9495C27.489 24.6784 27.8352 24.3335 28.0633 23.9216L14.241 15.9141Z" fill="#1A4674"/>
<path id="Vector_3" d="M10.1212 18.2863C10.9306 19.6993 12.4521 20.6523 14.1975 20.6523C15.9536 20.6523 17.4838 19.6872 18.2891 18.2591L14.2409 15.9141L10.1212 18.2863Z" fill="#1A4674"/>
<path id="Vector_4" d="M28.3937 9.38275C28.3934 8.84613 28.2787 8.37196 28.0466 7.965L14.241 15.9142L28.0632 23.9216C28.2848 23.5208 28.3949 23.0558 28.3951 22.5309C28.3951 22.5309 28.3951 13.7663 28.3937 9.38275Z" fill="#1B598E"/>
<path id="Vector_5" d="M27.6336 16.4865H26.5535V17.5668H25.4732V16.4865H24.3932V15.4065H25.4732V14.3264H26.5535V15.4065H27.6336V16.4865ZM23.6924 16.4865H22.6124V17.5668H21.5323V16.4865H20.4521V15.4065H21.5323V14.3264H22.6124V15.4065H23.6924V16.4865Z" fill="white"/>
<path id="Vector_6" d="M18.2892 18.2592C17.4839 19.6872 15.9537 20.6524 14.1976 20.6524C12.4522 20.6524 10.9307 19.6994 10.1213 18.2864C9.71471 17.5774 9.50119 16.7742 9.50203 15.9568C9.50203 13.3637 11.6044 11.2614 14.1976 11.2614C15.9317 11.2614 17.4452 12.2026 18.2586 13.6011L22.3627 11.2378C20.7315 8.42182 17.6859 6.52734 14.1976 6.52734C8.98964 6.52734 4.76794 10.7491 4.76794 15.9568C4.76794 17.6653 5.22245 19.2675 6.01682 20.6495C7.64399 23.4803 10.6982 25.3865 14.1976 25.3865C17.7033 25.3865 20.7624 23.4726 22.3872 20.6335L18.2892 18.2592Z" fill="white"/>
</g>
</g>
</svg>
