<svg width="27" height="30" viewBox="0 0 27 30" fill="none" xmlns="http://www.w3.org/2000/svg">
<g id="css3">
<g id="css3_2">
<path id="polygon2989" d="M26.0707 0.241455L23.7412 26.3384L13.2697 29.2415L2.82709 26.3425L0.5 0.241455H26.0707Z" fill="#264DE4"/>
<path id="polygon2991" d="M21.7468 24.6767L23.7376 2.3756H13.2854V27.0225L21.7468 24.6767Z" fill="#2965F1"/>
<path id="polygon2993" d="M5.83484 12.0561L6.12175 15.2573H13.2854V12.0561H5.83484Z" fill="#EBEBEB"/>
<path id="polygon2995" d="M13.2854 5.57679H13.2743H5.2583L5.5493 8.77801H13.2854V5.57679Z" fill="#EBEBEB"/>
<path id="polygon2997" d="M13.2854 23.7004V20.3699L13.2714 20.3736L9.70617 19.4109L9.47826 16.8578H7.74586H6.26477L6.71326 21.8842L13.2706 23.7045L13.2854 23.7004Z" fill="#EBEBEB"/>
<path id="polygon3005" d="M17.2162 15.2572L16.8446 19.4089L13.2743 20.3726V23.703L19.8369 21.8842L19.885 21.3434L20.6373 12.9157L20.7154 12.0561L21.2933 5.57679H13.2743V8.77801H17.7851L17.4938 12.0561H13.2743V15.2572H17.2162Z" fill="white"/>
</g>
</g>
</svg>
