<svg width="28" height="28" viewBox="0 0 28 28" fill="none" xmlns="http://www.w3.org/2000/svg">
<g id="figma">
<g id="figma_2">
<path id="Vector" d="M9.72986 27.5C12.2139 27.5 14.2299 25.484 14.2299 23V18.5H9.72986C7.24586 18.5 5.22986 20.516 5.22986 23C5.22986 25.484 7.24586 27.5 9.72986 27.5Z" fill="#0ACF83"/>
<path id="Vector_2" d="M5.22986 14C5.22986 11.516 7.24586 9.49996 9.72986 9.49996H14.2299V18.4999H9.72986C7.24586 18.4999 5.22986 16.4839 5.22986 14Z" fill="#A259FF"/>
<path id="Vector_3" d="M5.22986 4.99999C5.22986 2.516 7.24586 0.499996 9.72986 0.499996H14.2299V9.49999H9.72986C7.24586 9.49999 5.22986 7.48399 5.22986 4.99999Z" fill="#F24E1E"/>
<path id="Vector_4" d="M14.2299 0.499996H18.7299C21.2139 0.499996 23.2299 2.516 23.2299 4.99999C23.2299 7.48399 21.2139 9.49999 18.7299 9.49999H14.2299V0.499996Z" fill="#FF7262"/>
<path id="Vector_5" d="M23.2299 14C23.2299 16.4839 21.2139 18.4999 18.7299 18.4999C16.2459 18.4999 14.2299 16.4839 14.2299 14C14.2299 11.516 16.2459 9.49996 18.7299 9.49996C21.2139 9.49996 23.2299 11.516 23.2299 14Z" fill="#1ABCFE"/>
</g>
</g>
</svg>
