<svg width="28" height="28" viewBox="0 0 28 28" fill="none" xmlns="http://www.w3.org/2000/svg">
<g id="github">
<g id="github_2">
<path id="Vector" d="M13.9998 0.691658C6.26892 0.691658 0 6.95948 0 14.6915C0 20.8771 4.01136 26.1247 9.57396 27.9759C10.2736 28.1055 10.5305 27.6722 10.5305 27.3024C10.5305 26.9687 10.5175 25.8657 10.5115 24.6959C6.61666 25.5428 5.79482 23.0441 5.79482 23.0441C5.15799 21.4259 4.2404 20.9957 4.2404 20.9957C2.97026 20.1268 4.33615 20.1446 4.33615 20.1446C5.742 20.2434 6.48226 21.5873 6.48226 21.5873C7.73089 23.7276 9.75732 23.1088 10.5562 22.7512C10.6818 21.8462 11.0447 21.2287 11.445 20.8791C8.33554 20.525 5.06664 19.3246 5.06664 13.9603C5.06664 12.4319 5.61354 11.183 6.50916 10.2026C6.36379 9.84992 5.88463 8.42606 6.64476 6.49767C6.64476 6.49767 7.82037 6.12139 10.4957 7.93273C11.6124 7.62244 12.81 7.46697 13.9998 7.4617C15.1896 7.46697 16.3881 7.62244 17.507 7.93273C20.1791 6.12139 21.3531 6.49767 21.3531 6.49767C22.1151 8.42606 21.6357 9.84992 21.4903 10.2026C22.3879 11.183 22.9311 12.4318 22.9311 13.9603C22.9311 19.3374 19.6561 20.5214 16.5387 20.8679C17.0408 21.3024 17.4882 22.1544 17.4882 23.4605C17.4882 25.3336 17.472 26.8413 17.472 27.3024C17.472 27.675 17.7239 28.1115 18.4337 27.9741C23.9932 26.1208 27.9995 20.875 27.9995 14.6915C27.9995 6.95948 21.7315 0.691658 13.9998 0.691658Z" fill="white"/>
<path id="Vector_2" d="M5.24338 20.6348C5.21263 20.7043 5.10305 20.7251 5.00347 20.6775C4.9019 20.6318 4.84481 20.5369 4.87775 20.4671C4.90794 20.3955 5.01752 20.3755 5.11886 20.4236C5.22065 20.4692 5.27862 20.5649 5.24338 20.6348ZM5.93203 21.2492C5.86527 21.3111 5.73472 21.2823 5.64612 21.1845C5.55454 21.0869 5.53742 20.9565 5.60516 20.8935C5.674 20.8317 5.8006 20.8606 5.89239 20.9583C5.98397 21.057 6.00175 21.1867 5.93192 21.2493L5.93203 21.2492ZM6.40449 22.0353C6.31863 22.095 6.17831 22.0391 6.09168 21.9146C6.00592 21.7902 6.00592 21.6408 6.09354 21.581C6.1805 21.5212 6.31863 21.575 6.40647 21.6985C6.49211 21.8251 6.49211 21.9744 6.40438 22.0354L6.40449 22.0353ZM7.20339 22.9459C7.12664 23.0304 6.96326 23.0078 6.84358 22.8923C6.72126 22.7794 6.68711 22.6192 6.76408 22.5346C6.84171 22.4498 7.00608 22.4737 7.12664 22.5882C7.24818 22.7008 7.2853 22.8622 7.2035 22.9459H7.20339ZM8.23593 23.2533C8.20222 23.3629 8.04477 23.4128 7.88622 23.3662C7.72789 23.3182 7.62424 23.1898 7.65619 23.079C7.68913 22.9686 7.84724 22.9167 8.007 22.9665C8.16511 23.0143 8.26898 23.1418 8.23604 23.2533H8.23593ZM9.41121 23.3837C9.41516 23.4992 9.28066 23.5949 9.11421 23.597C8.94676 23.6006 8.81138 23.5072 8.80962 23.3937C8.80962 23.277 8.94105 23.1822 9.10839 23.1794C9.27484 23.1761 9.41121 23.2689 9.41121 23.3837ZM10.5656 23.3394C10.5856 23.4521 10.4699 23.5678 10.3046 23.5985C10.1421 23.6282 9.99171 23.5587 9.97096 23.447C9.95076 23.3315 10.0687 23.2159 10.2309 23.1859C10.3964 23.1571 10.5445 23.2249 10.5656 23.3394Z" fill="white"/>
</g>
</g>
</svg>
