<svg width="27" height="28" viewBox="0 0 27 28" fill="none" xmlns="http://www.w3.org/2000/svg">
<g id="js">
<g id="js_2">
<path id="Vector" d="M27 0.241455H0V27.2415H27V0.241455Z" fill="#F7DF1E"/>
<path id="Vector_2" d="M18.1371 21.3353C18.681 22.2233 19.3886 22.876 20.64 22.876C21.6913 22.876 22.3628 22.3506 22.3628 21.6246C22.3628 20.7546 21.6728 20.4465 20.5157 19.9403L19.8814 19.6682C18.0506 18.8882 16.8343 17.911 16.8343 15.8453C16.8343 13.9425 18.2841 12.4939 20.55 12.4939C22.1631 12.4939 23.3228 13.0553 24.1586 14.5253L22.1828 15.7939C21.7478 15.0139 21.2786 14.7066 20.55 14.7066C19.8068 14.7066 19.3358 15.178 19.3358 15.7939C19.3358 16.555 19.8073 16.8632 20.8958 17.3346L21.5301 17.6063C23.6858 18.5308 24.903 19.4732 24.903 21.592C24.903 23.8763 23.1086 25.1278 20.6987 25.1278C18.3424 25.1278 16.8201 24.0049 16.0753 22.5332L18.1371 21.3353ZM9.17442 21.5552C9.57299 22.2623 9.93556 22.8602 10.8073 22.8602C11.6408 22.8602 12.1667 22.534 12.1667 21.2659V12.6388H14.7038V21.3002C14.7038 23.9273 13.1636 25.123 10.9153 25.123C8.88384 25.123 7.70742 24.0718 7.10913 22.8055L9.17442 21.5552Z" fill="black"/>
</g>
</g>
</svg>
