<svg width="27" height="29" viewBox="0 0 27 29" fill="none" xmlns="http://www.w3.org/2000/svg">
<g id="nodejs">
<g id="nodejs_2">
<path id="Vector" d="M12.3332 0.778706C13.0207 0.385201 13.9161 0.383423 14.603 0.778706C18.0587 2.73132 21.5154 4.68087 24.9704 6.63467C25.6203 7.00072 26.055 7.72394 26.0483 8.47274V20.2204C26.0532 21.0002 25.5755 21.7407 24.8899 22.0985C21.4457 24.0403 18.0032 25.9845 14.5595 27.9264C13.8578 28.3276 12.9444 28.2967 12.2646 27.8626C11.232 27.264 10.1976 26.6684 9.16495 26.0704C8.95393 25.9446 8.71605 25.8444 8.56704 25.6398C8.69877 25.4623 8.93428 25.4402 9.12565 25.3626C9.55668 25.2256 9.95255 25.0056 10.3485 24.7921C10.4487 24.7235 10.5709 24.7498 10.6669 24.8111C11.5499 25.3174 12.4251 25.8384 13.311 26.3398C13.5 26.4489 13.6914 26.3041 13.8529 26.214C17.2328 24.3038 20.6169 22.4007 23.9962 20.4899C24.1214 20.4297 24.1906 20.2967 24.1805 20.1596C24.1828 16.2843 24.181 12.4083 24.1816 8.53297C24.196 8.37735 24.1059 8.23426 23.9652 8.17057C20.5329 6.23761 17.1023 4.30169 13.6706 2.36823C13.6111 2.32735 13.5407 2.30542 13.4685 2.30531C13.3964 2.30521 13.3259 2.32693 13.2663 2.36764C9.83455 4.30169 6.40459 6.23939 2.97285 8.17225C2.83263 8.23604 2.73853 8.37676 2.75522 8.53297C2.75581 12.4083 2.75522 16.2843 2.75522 20.1602C2.74927 20.2271 2.76396 20.2942 2.79733 20.3526C2.8307 20.4109 2.88114 20.4576 2.94185 20.4863C3.85762 21.0056 4.77458 21.5213 5.69095 22.0388C6.2072 22.3167 6.84105 22.4818 7.40983 22.2689C7.91176 22.0889 8.26359 21.5767 8.25402 21.0438C8.25876 17.1911 8.25165 13.3378 8.25757 9.48568C8.24503 9.31465 8.40727 9.17334 8.57356 9.18944C9.01357 9.18648 9.45418 9.18352 9.8942 9.19063C10.0779 9.18648 10.2043 9.37064 10.1815 9.54295C10.1798 13.42 10.1863 17.2972 10.1786 21.1743C10.1798 22.2076 9.75526 23.3319 8.79949 23.8375C7.62204 24.4475 6.16671 24.3181 5.00348 23.7332C3.99646 23.2306 3.03546 22.6374 2.04632 22.099C1.35894 21.7432 0.883674 20.9997 0.888513 20.2205V8.47274C0.881304 7.70844 1.33327 6.97209 2.00336 6.61137C5.44705 4.66794 8.89014 2.72302 12.3332 0.778706Z" fill="#8CC84B"/>
<path id="Vector_2" d="M15.3375 8.91642C16.8394 8.81975 18.4473 8.85915 19.7989 9.59905C20.8453 10.1661 21.4254 11.3561 21.4439 12.5186C21.4147 12.6754 21.2507 12.7619 21.101 12.7511C20.6653 12.7505 20.2294 12.7571 19.7936 12.7482C19.6088 12.7553 19.5013 12.5849 19.4781 12.4214C19.3529 11.8652 19.0496 11.3143 18.526 11.046C17.7223 10.6436 16.7905 10.6638 15.9141 10.6722C15.2743 10.7062 14.5863 10.7616 14.0443 11.1378C13.6282 11.4228 13.5018 11.9981 13.6503 12.4614C13.7903 12.7941 14.1744 12.9014 14.4886 13.0004C16.2986 13.4738 18.2166 13.4267 19.9921 14.0497C20.7272 14.3036 21.4463 14.7974 21.6979 15.567C22.027 16.5985 21.8827 17.8315 21.1488 18.6595C20.5537 19.341 19.6869 19.7119 18.8224 19.9133C17.6723 20.1698 16.4787 20.1763 15.3107 20.0624C14.2125 19.9372 13.0696 19.6487 12.2217 18.9004C11.4967 18.2709 11.1426 17.29 11.1778 16.3433C11.1862 16.1835 11.3454 16.072 11.4985 16.0851C11.9374 16.0816 12.3762 16.0804 12.815 16.0857C12.9903 16.0732 13.1202 16.2246 13.1292 16.3899C13.2102 16.9198 13.4094 17.4761 13.8715 17.7903C14.7634 18.3657 15.8825 18.3263 16.9037 18.3424C17.7498 18.3048 18.6995 18.2935 19.39 17.7343C19.7542 17.4153 19.8622 16.8817 19.7637 16.4226C19.6571 16.0351 19.2516 15.8544 18.9034 15.7363C17.1166 15.1711 15.1771 15.3762 13.4076 14.737C12.6892 14.4832 11.9945 14.0031 11.7185 13.2651C11.3334 12.2206 11.5099 10.9286 12.3207 10.1284C13.1113 9.33254 14.2525 9.02603 15.3375 8.91632V8.91642Z" fill="#8CC84B"/>
</g>
</g>
</svg>
