<svg width="26" height="27" viewBox="0 0 26 27" fill="none" xmlns="http://www.w3.org/2000/svg">
<g id="openai">
<g id="openai_2">
<path id="Vector" d="M24.4372 11.0325C24.7563 10.155 24.836 9.27753 24.7563 8.40005C24.6765 7.52257 24.3574 6.6451 23.9585 5.84739C23.2406 4.65083 22.2036 3.69359 21.007 3.13519C19.7307 2.5768 18.3746 2.41726 17.0185 2.73634C16.3803 2.09818 15.6624 1.53978 14.8647 1.14093C14.067 0.742076 13.1097 0.582535 12.2323 0.582535C10.8762 0.582535 9.52007 0.981388 8.40328 1.77909C7.2865 2.5768 6.48879 3.69359 6.08994 4.96992C5.13269 5.20923 4.33498 5.60808 3.53728 6.0867C2.81934 6.6451 2.26095 7.36303 1.78233 8.08097C1.06439 9.27753 0.825079 10.6336 0.984621 11.9897C1.14416 13.3458 1.70256 14.6222 2.58003 15.6592C2.26095 16.5366 2.18118 17.4141 2.26095 18.2916C2.34072 19.1691 2.6598 20.0466 3.05866 20.8443C3.77659 22.0408 4.81361 22.9981 6.01017 23.5565C7.2865 24.1149 8.6426 24.2744 9.9987 23.9553C10.6369 24.5935 11.3548 25.1519 12.1525 25.5507C12.9502 25.9496 13.9075 26.1091 14.7849 26.1091C16.141 26.1091 17.4971 25.7103 18.6139 24.9126C19.7307 24.1149 20.5284 22.9981 20.9273 21.7217C21.8047 21.5622 22.6822 21.1633 23.4002 20.6049C24.1181 20.0466 24.7563 19.4084 25.1551 18.6107C25.873 17.4141 26.1124 16.058 25.9528 14.7019C25.7933 13.3458 25.3146 12.0695 24.4372 11.0325ZM14.8647 24.4339C13.5884 24.4339 12.6311 24.0351 11.7536 23.3172C11.7536 23.3172 11.8334 23.2374 11.9132 23.2374L17.0185 20.2859C17.178 20.2061 17.2578 20.1263 17.3376 19.9668C17.4174 19.8072 17.4174 19.7275 17.4174 19.5679V12.3886L19.5712 13.6649V19.5679C19.6509 22.3599 17.4174 24.4339 14.8647 24.4339ZM4.5743 20.0466C4.0159 19.0893 3.77659 17.9725 4.0159 16.8557C4.0159 16.8557 4.09567 16.9355 4.17544 16.9355L9.28076 19.887C9.4403 19.9668 9.52007 19.9668 9.67961 19.9668C9.83915 19.9668 9.9987 19.9668 10.0785 19.887L16.3006 16.2973V18.7702L11.1155 21.8015C9.9987 22.4397 8.72237 22.5992 7.52581 22.2801C6.24948 21.9611 5.21246 21.1633 4.5743 20.0466ZM3.2182 8.95845C3.77659 8.0012 4.65407 7.28326 5.69108 6.88441V7.04395V12.947C5.69108 13.1065 5.69108 13.2661 5.77086 13.3458C5.85063 13.5054 5.9304 13.5851 6.08994 13.6649L12.312 17.2546L10.1582 18.5309L5.05292 15.5794C3.93613 14.9412 3.13843 13.9042 2.81934 12.7077C2.50026 11.5111 2.58003 10.0752 3.2182 8.95845ZM20.8475 13.0267L14.6254 9.43707L16.7792 8.16074L21.8845 11.1123C22.6822 11.5909 23.3204 12.229 23.7192 13.0267C24.1181 13.8245 24.3574 14.7019 24.2776 15.6592C24.1979 16.5366 23.8788 17.4141 23.3204 18.1321C22.762 18.85 22.0441 19.4084 21.1666 19.7275V13.6649C21.1666 13.5054 21.1666 13.3458 21.0868 13.2661C21.0868 13.2661 21.007 13.1065 20.8475 13.0267ZM23.0013 9.83592C23.0013 9.83592 22.9215 9.75615 22.8418 9.75615L17.7364 6.80464C17.5769 6.72487 17.4971 6.72487 17.3376 6.72487C17.178 6.72487 17.0185 6.72487 16.9387 6.80464L10.7166 10.3943V7.92143L15.9017 4.89015C16.6994 4.41152 17.5769 4.25198 18.5341 4.25198C19.4116 4.25198 20.2891 4.57106 21.0868 5.12946C21.8047 5.68785 22.4429 6.40579 22.762 7.20349C23.0811 8.0012 23.1608 8.95845 23.0013 9.83592ZM9.59984 14.3031L7.44604 13.0267V7.04395C7.44604 6.16648 7.68535 5.20923 8.16397 4.49129C8.6426 3.69359 9.36053 3.13519 10.1582 2.73634C10.9559 2.33749 11.9132 2.17795 12.7907 2.33749C13.6681 2.41726 14.5456 2.81611 15.2636 3.37451C15.2636 3.37451 15.1838 3.45428 15.104 3.45428L9.9987 6.40579C9.83916 6.48556 9.75938 6.56533 9.67961 6.72487C9.59984 6.88441 9.59984 6.96418 9.59984 7.12372V14.3031ZM10.7166 11.7504L13.5086 10.155L16.3006 11.7504V14.9412L13.5086 16.5366L10.7166 14.9412V11.7504Z" fill="white"/>
</g>
</g>
</svg>
