<svg width="53" height="53" viewBox="0 0 53 53" fill="none" xmlns="http://www.w3.org/2000/svg">
<path d="M26.5 36.0694V46.375H28.7083L41.9583 33.125V30.9167H31.6528C29.2237 30.9167 28.0092 30.9167 27.2546 31.6713C26.5 32.4259 26.5 33.6404 26.5 36.0694Z" fill="black"/>
<path d="M26.8789 46.375H19.875C15.7109 46.375 13.6289 46.375 12.3353 45.0814C11.0417 43.7878 11.0417 41.7057 11.0417 37.5417V15.4583C11.0417 11.2943 11.0417 9.21223 12.3353 7.91861C13.6289 6.625 15.7109 6.625 19.875 6.625H33.125C37.2891 6.625 39.3711 6.625 40.6647 7.91861C41.9583 9.21223 41.9583 11.2943 41.9583 15.4583V31.2956C41.9583 32.1982 41.9583 32.6495 41.7902 33.0554C41.6221 33.4612 41.303 33.7803 40.6647 34.4186L30.0019 45.0814C29.3637 45.7197 29.0445 46.0388 28.6387 46.2069C28.2329 46.375 27.7815 46.375 26.8789 46.375Z" stroke="white" stroke-width="2"/>
<path d="M26.5 46.375V36.0694C26.5 33.6404 26.5 32.4259 27.2546 31.6713C28.0092 30.9167 29.2237 30.9167 31.6528 30.9167H41.9583" stroke="white" stroke-width="1.2"/>
</svg>
