<svg width="52" height="57" viewBox="0 0 52 57" fill="none" xmlns="http://www.w3.org/2000/svg">
<path d="M18.9487 47.7955C6.12821 51.6478 6.12821 41.3752 1 40.0911M36.8974 55.5V45.5612C36.9936 44.3367 36.8284 43.1056 36.4129 41.9499C35.9973 40.7942 35.3408 39.7403 34.4872 38.8584C42.5385 37.9595 51 34.9034 51 20.8813C50.9993 17.2957 49.6223 13.8477 47.1538 11.2507C48.3227 8.11376 48.2401 4.64635 46.9231 1.56881C46.9231 1.56881 43.8974 0.669956 36.8974 5.36967C31.0205 3.77439 24.8256 3.77439 18.9487 5.36967C11.9487 0.669956 8.92308 1.56881 8.92308 1.56881C7.60609 4.64635 7.52345 8.11376 8.69231 11.2507C6.20545 13.8669 4.82698 17.3462 4.84615 20.9584C4.84615 34.8777 13.3077 37.9338 21.359 38.9354C20.5154 39.8085 19.8648 40.8497 19.4495 41.9913C19.0342 43.1329 18.8636 44.3493 18.9487 45.5612V55.5" stroke="#F3F3F3" stroke-width="2" stroke-linecap="round" stroke-linejoin="round"/>
</svg>
