<svg width="49" height="49" viewBox="0 0 49 49" fill="none" xmlns="http://www.w3.org/2000/svg">
<path d="M32.6667 16.3334C35.9156 16.3334 39.0314 17.624 41.3287 19.9213C43.6261 22.2186 44.9167 25.3345 44.9167 28.5834V42.875H36.75V28.5834C36.75 27.5004 36.3198 26.4618 35.554 25.696C34.7883 24.9302 33.7496 24.5 32.6667 24.5C31.5837 24.5 30.5451 24.9302 29.7793 25.696C29.0136 26.4618 28.5833 27.5004 28.5833 28.5834V42.875H20.4167V28.5834C20.4167 25.3345 21.7073 22.2186 24.0046 19.9213C26.3019 17.624 29.4178 16.3334 32.6667 16.3334Z" stroke="#F3F3F3" stroke-width="2" stroke-linecap="round" stroke-linejoin="round"/>
<path d="M12.25 18.375H4.08334V42.875H12.25V18.375Z" stroke="#F3F3F3" stroke-width="2" stroke-linecap="round" stroke-linejoin="round"/>
<path d="M8.16668 12.25C10.4218 12.25 12.25 10.4219 12.25 8.16671C12.25 5.91154 10.4218 4.08337 8.16668 4.08337C5.91151 4.08337 4.08334 5.91154 4.08334 8.16671C4.08334 10.4219 5.91151 12.25 8.16668 12.25Z" stroke="#F3F3F3" stroke-width="2" stroke-linecap="round" stroke-linejoin="round"/>
</svg>
